<svg width="280" height="48" fill="none" xmlns="http://www.w3.org/2000/svg"><path fill-rule="evenodd" clip-rule="evenodd" d="M4.752 7.637h250.916c8.899 0 16.17 7.363 16.17 16.363s-7.271 16.364-16.17 16.364H.904L4.752 7.637z" fill="#FFC500"/><path d="M10.546 13.362H23.57L21.068 34.64H8.044l2.502-21.277zm16.463 0h12.465l15.59 12.923 1.519-12.923h13.239L67.32 34.64H54.64L38.925 21.325 37.36 34.639H24.507l2.502-21.277zm73.571 4.917H85.578l-1.376 11.704h15.002c.545 0 .982-.188 1.313-.566.331-.377.53-.79.597-1.24.067-.45-.02-.863-.262-1.24-.243-.377-.665-.565-1.266-.565h-14.53l4.231-4.177h10.833c.544 0 .991-.203 1.339-.61.349-.405.559-.855.632-1.348a2.01 2.01 0 00-.25-1.349c-.239-.406-.659-.609-1.261-.609zm10.299 5.265l-.01.087c1.077.348 1.873.95 2.388 1.805.516.856.7 1.791.552 2.807-.092.783-.356 1.559-.79 2.328a7.624 7.624 0 01-1.726 2.066c-.716.61-1.561 1.095-2.535 1.458-.974.363-2.063.544-3.267.544H70.759l2.502-21.277h34.603c.888 0 1.686.16 2.394.479a5.52 5.52 0 011.805 1.283 5.204 5.204 0 011.098 1.806 4.47 4.47 0 01.233 2.045 7.337 7.337 0 01-.828 2.654c-.439.812-1.002 1.45-1.687 1.915zm23.879 6.396h7.479c1.777 0 3.03-.479 3.758-1.436.729-.957 1.196-2.306 1.4-4.047l1.305-11.095h12.938l-1.289 10.965c-.511 4.35-1.936 7.324-4.272 8.92-.686.464-1.5.812-2.444 1.044-.945.232-1.918.348-2.921.348h-25.061c-1.433 0-2.7-.189-3.802-.566-1.102-.377-1.979-.957-2.632-1.74-1.411-1.654-1.904-4.279-1.482-7.876l1.305-11.095h13.024l-1.314 11.182c-.413 3.51.923 5.309 4.008 5.396zm30.319-16.578h13.025L175.6 34.64h-13.024l2.501-21.277zm13.962 21.277h36.107l4.851-4.7h-27.252l1.949-16.577H181.54l-2.501 21.277zm43.845 0l2.501-21.277h31.723c1.433 0 2.748.269 3.946.805a8.636 8.636 0 013.028 2.22c.82.942 1.428 2.044 1.825 3.306.396 1.262.507 2.632.333 4.112a11.67 11.67 0 01-1.308 4.177 13.302 13.302 0 01-2.618 3.437 12.382 12.382 0 01-3.564 2.35c-1.33.58-2.71.87-4.143.87h-18.054l4.765-4.7h6.061c1.633 0 3.109-.543 4.426-1.631 1.317-1.088 2.074-2.473 2.272-4.155.198-1.683-.218-3.082-1.247-4.199-1.029-1.117-2.361-1.675-3.994-1.675h-10.875l-1.924 16.36h-13.153z" fill="#1F1F1F"/><path d="M256.29 0c3.195 0 6.25.65 9.044 1.826a23.835 23.835 0 017.702 5.222 24.169 24.169 0 015.159 7.797A24.041 24.041 0 01279.999 24c0 3.234-.642 6.328-1.804 9.156a24.167 24.167 0 01-5.159 7.796c-2.186 2.213-4.8 4-7.702 5.222A23.258 23.258 0 01256.29 48H0l.598-5.087H256.29c2.521 0 4.927-.51 7.122-1.435a18.805 18.805 0 006.071-4.122A18.928 18.928 0 00274.974 24a18.928 18.928 0 00-5.491-13.356 18.812 18.812 0 00-6.071-4.122 18.31 18.31 0 00-7.122-1.435H5.045L5.643 0H256.29z" fill="#1F1F1F"/></svg>