<svg width="22" height="22" fill="none" xmlns="http://www.w3.org/2000/svg"><g opacity=".6" stroke="#393939" stroke-width="1.5" stroke-linecap="round" stroke-linejoin="round"><path d="M19.25 15.238V6.761a.688.688 0 00-.35-.599l-7.563-4.254a.688.688 0 00-.674 0L3.1 6.162a.688.688 0 00-.35.6v8.476a.688.688 0 00.35.6l7.563 4.253a.688.688 0 00.674 0l7.563-4.254a.688.688 0 00.35-.599z"/><path d="M15.213 13.106V8.638L6.875 4.039"/><path d="M19.155 6.413L11.08 11 2.845 6.413M11.082 11L11 20.18"/></g></svg>