<svg width="24" height="24" fill="none" xmlns="http://www.w3.org/2000/svg"><path d="M22.5 11.25h-6V7.5h3.992a.75.75 0 01.697.471L22.5 11.25zm-21 2.25h15" stroke="#000" stroke-width="2" stroke-linecap="round" stroke-linejoin="round"/><path d="M17.625 20.25a2.25 2.25 0 100-4.5 2.25 2.25 0 000 4.5zm-11.25 0a2.25 2.25 0 100-4.5 2.25 2.25 0 000 4.5z" stroke="#000" stroke-width="2" stroke-miterlimit="10"/><path d="M15.375 18h-6.75m-4.5 0H2.25a.75.75 0 01-.75-.75V6.75A.75.75 0 012.25 6H16.5v10.051m0 0V11.25h6v6a.75.75 0 01-.75.75h-1.875" stroke="#000" stroke-width="2" stroke-linecap="round" stroke-linejoin="round"/></svg>